<svg width="2345" height="1490" viewBox="0 0 2345 1490" fill="none" xmlns="http://www.w3.org/2000/svg">
<g clip-path="url(#clip0)">
<rect width="3268" height="1490" fill="url(#paint0_linear)"/>
<path d="M773.613 -26.9999C800.247 -26.9999 821.837 -2.60819 821.837 27.4813C821.837 57.5708 800.247 81.9625 773.613 81.9625M71.8739 -27C71.8739 10.6802 44.8856 41.22 11.5941 41.22C-21.6974 41.22 -48.6856 10.6802 -48.6856 -27M0.291641 956.505C27.8862 956.505 50.2564 931.052 50.2564 899.655C50.2564 868.258 27.8862 842.805 0.291635 842.805L-56.1685 842.805M1117 1358.97C1117 1429.74 1066.94 1487.1 1005.17 1487.1C943.405 1487.1 893.341 1429.74 893.341 1358.97V1241.7M1040.51 1366.79C1040.51 1390.33 1024.32 1409.41 1004.34 1409.41C984.363 1409.41 968.171 1390.33 968.171 1366.79V1321.29M-56.1681 1236.97L-56.1685 1423.03C-56.1685 1459.46 -30.8555 1489 0.369719 1489M-54.5052 429.695L-54.5057 191.17C-54.5057 144.462 -21.3754 106.598 19.4929 106.598M327.127 -26.9999L187.179 -26.9999C159.774 -26.9999 137.558 -1.54248 137.558 29.8501C137.558 61.2427 159.774 86.7001 187.179 86.7001H208.841M745.79 851.333V1021.35C745.79 1064.2 776.114 1098.94 813.519 1098.94C850.925 1098.94 881.249 1064.2 881.249 1021.35V951.178M1117 1141.42V1151.55C1117 1181.46 1095.7 1205.7 1069.44 1205.7C1043.17 1205.7 1021.87 1181.46 1021.87 1151.55V1030.67C1021.87 986.49 990.401 950.673 951.583 950.673M431.889 1119.7H485.339C550.445 1119.7 603.222 1059.62 603.222 985.517V932.072C603.222 887.481 634.979 851.332 674.153 851.332M270.589 1314.19C270.589 1240.66 219.033 1181.06 155.434 1181.06C91.8356 1181.06 40.2791 1240.66 40.2791 1314.19C40.2791 1387.71 91.8357 1447.31 155.434 1447.31M961.069 246.628C1027.43 266.854 1095.39 223.1 1112.87 148.907C1130.35 74.7131 1090.72 -1.83791 1024.36 -22.0632C957.995 -42.2885 890.034 1.46466 872.555 75.6583M951.543 1032.47C951.543 1112.96 888.823 1178.22 811.454 1178.22C784.589 1178.22 759.489 1170.35 738.169 1156.71M670.514 932.818V1032.11C670.514 1063.89 680.16 1093.29 696.535 1117.24M287.218 1177.75C287.218 1207.84 308.622 1232.23 335.026 1232.23C361.43 1232.23 382.834 1207.84 382.834 1177.75C382.834 1147.66 361.43 1123.27 335.026 1123.27H287.218M7.43699 1161.16C42.5651 1161.16 71.0425 1128.92 71.0425 1089.15C71.0425 1049.39 42.5651 1017.15 7.43698 1017.15C-27.6914 1017.15 -56.1685 1049.39 -56.1685 1089.15L-56.1685 1161.16M663.515 1421.25C663.515 1456.05 639.025 1484.26 608.814 1484.26C578.602 1484.26 554.112 1456.05 554.112 1421.25C554.112 1386.45 578.602 1358.25 608.814 1358.25H776.108M666.357 103.766C694.367 103.766 717.075 78.3057 717.075 46.9052C717.075 15.5047 694.367 -9.94469 666.357 -9.94469C638.346 -9.94468 615.639 15.5047 615.639 46.9052V237.353M59.2283 573.715C59.2283 607.206 82.7188 634.355 111.696 634.355C140.674 634.355 164.164 607.206 164.164 573.715C164.164 540.225 140.674 513.075 111.696 513.075H-57M1068.78 622.115C1042.14 622.115 1020.55 597.705 1020.55 567.595C1020.55 537.484 1042.14 513.075 1068.78 513.075C1095.41 513.075 1117 537.484 1117 567.595V654.253M410.752 456.699C410.752 426.609 432.049 402.218 458.32 402.218C484.592 402.218 505.888 426.609 505.888 456.699C505.888 486.788 484.592 511.18 458.32 511.18H280.567M415.849 1429.78C415.849 1459.87 436.935 1484.26 462.947 1484.26C488.959 1484.26 510.045 1459.87 510.045 1429.78C510.045 1399.69 488.959 1375.3 462.947 1375.3H270.589M270.589 836.453C223.293 836.453 184.95 879.448 184.95 932.484C184.95 985.52 223.293 1028.51 270.589 1028.51C317.886 1028.51 356.228 985.52 356.228 932.484V680.783M547.46 69.0357C547.46 15.9895 509.118 -26.9998 461.821 -26.9998C414.525 -26.9998 376.183 15.9895 376.183 69.0357V320.733M604.414 704.47H530.138C508.939 704.47 491.754 684.744 491.754 660.411C491.754 636.078 508.939 616.353 530.138 616.353H678.691C699.89 616.353 717.075 636.078 717.075 660.411C717.075 684.744 699.89 704.47 678.691 704.47H660.745M207.342 622.985H213.817C250.682 622.985 280.567 657.134 280.567 699.259C280.567 741.384 250.682 775.533 213.817 775.533H10.5807C-26.2839 775.533 -56.1685 741.384 -56.1686 699.259C-56.1686 657.134 -26.2839 622.985 10.5807 622.985H12.5732M734.535 1421.02V1425.58C734.535 1457.99 757.615 1484.26 786.085 1484.26C814.555 1484.26 837.635 1457.99 837.635 1425.58L837.634 1289.97C837.634 1257.55 814.555 1231.28 786.085 1231.28C757.615 1231.28 734.535 1257.55 734.535 1289.97V1294.53M491.754 777.427H684.347C741.913 777.427 788.579 723.765 788.579 657.569C788.579 591.372 741.913 537.71 684.347 537.71H638.844M817.68 1018.09V821.201C817.68 746.266 871.284 685.52 937.408 685.52C1003.53 685.52 1057.14 746.266 1057.14 821.201V880.433M525.843 933.765V980.369C525.843 1011.67 503.508 1037.04 475.956 1037.04C448.405 1037.04 426.069 1011.67 426.069 980.369V887.161C426.069 855.861 448.405 830.488 475.956 830.488H480.388C505.492 830.488 525.843 853.607 525.843 882.126M335.442 456.699V403.467C335.442 367.719 311.431 338.735 281.814 338.735C252.196 338.735 228.186 367.719 228.186 403.467V509.931C228.186 545.681 252.196 574.663 281.814 574.663M111.783 849.438L111.783 977.048C111.783 1057.8 169.482 1123.27 240.657 1123.27M946.421 115.599C946.421 85.5093 967.672 61.1176 993.88 61.1176C1020.09 61.1176 1041.34 85.5093 1041.34 115.599C1041.34 145.688 1020.09 170.08 993.88 170.08H684.649M977.317 523.498C928.644 523.498 889.184 479.11 889.184 424.356V249.67M426.069 781.217V688.009C426.069 625.409 381.399 574.663 326.296 574.663M686.311 237.353H731.006C776.119 237.353 812.691 279.044 812.691 330.48V403.165M463.484 61.1177V140.714C463.484 198.275 504.804 244.933 555.775 244.933M1117 1282.44H1041.24C997.62 1282.44 961.079 1243.62 951.542 1191.48M214.051 1446.84C221.794 1446.84 319.268 1446.84 367.037 1446.84M1116.58 1075.89C1116.58 1055.98 1116.58 839.594 1116.58 716.788M565.752 457.646C572.148 457.646 652.67 457.646 692.132 457.646M909.139 603.561C911.748 603.561 944.589 603.561 960.688 603.561M431.058 320.733H549.398C568.018 320.733 583.101 338.067 583.101 359.452C583.101 380.837 598.196 398.171 616.817 398.171H623.81C642.43 398.171 657.526 380.837 657.526 359.452C657.526 338.067 672.621 320.733 691.242 320.733H698.985C721.882 320.733 740.443 342.048 740.443 368.343V429.147M850.937 585.085V559.715C850.937 507.289 813.69 464.79 767.742 464.79M267.198 85.7527H284.061C307.846 85.7527 327.127 107.795 327.127 134.968C327.127 162.153 307.846 184.195 284.061 184.195H270.093C246.489 184.195 227.354 206.066 227.354 233.034C227.354 260.014 246.489 281.885 270.093 281.885H287.284M303.016 931.87C303.016 910.938 288.126 893.97 269.758 893.97C251.39 893.97 236.5 910.938 236.5 931.87C236.5 952.802 251.39 969.77 269.758 969.77C288.126 969.77 303.016 952.802 303.016 931.87ZM984.8 827.645C984.8 797.294 963.396 772.69 936.992 772.69C910.588 772.69 889.184 797.294 889.184 827.645C889.184 857.996 910.589 882.6 936.992 882.6C963.396 882.6 984.8 857.996 984.8 827.645ZM209.062 1314.66C209.062 1281.69 185.611 1254.97 156.681 1254.97C127.752 1254.97 104.3 1281.69 104.3 1314.66C104.3 1347.63 127.752 1374.35 156.681 1374.35C185.611 1374.35 209.062 1347.63 209.062 1314.66ZM88.9185 440.118C44.606 440.118 8.68411 399.622 8.6841 349.668L8.6841 256.74C8.68409 206.782 44.606 166.29 88.9185 166.29C133.231 166.29 169.153 206.782 169.153 256.74L169.153 349.668C169.153 399.622 133.231 440.118 88.9185 440.118ZM667.188 1236.49C667.188 1267.63 645.077 1292.87 617.801 1292.87H477.12C449.844 1292.87 427.732 1267.63 427.732 1236.49C427.732 1205.36 449.844 1180.12 477.12 1180.12H617.801C645.077 1180.12 667.188 1205.36 667.188 1236.49ZM1012.21 457.173C978.708 457.173 951.542 426.205 951.542 388.005C951.542 349.809 978.708 318.838 1012.21 318.838H1056.33C1089.83 318.838 1117 349.809 1117 388.005C1117 426.205 1089.83 457.173 1056.33 457.173H1012.21Z" stroke="white" stroke-opacity="0.05" stroke-width="6" stroke-linecap="round" stroke-linejoin="round"/>
<path d="M1948.32 -26.9999C1974.98 -26.9999 1996.59 -2.60825 1996.59 27.4813C1996.59 57.5708 1974.98 81.9625 1948.32 81.9625M1245.98 -27C1245.98 10.6801 1218.97 41.22 1185.65 41.22C1152.33 41.22 1125.32 10.6801 1125.32 -27M1174.34 956.505C1201.96 956.505 1224.35 931.052 1224.35 899.655C1224.35 868.258 1201.96 842.805 1174.34 842.805L1117.83 842.805M2292 1358.97C2292 1429.74 2241.89 1487.1 2180.08 1487.1C2118.26 1487.1 2068.15 1429.74 2068.15 1358.97V1241.7M2215.44 1366.79C2215.44 1390.33 2199.24 1409.41 2179.24 1409.41C2159.25 1409.41 2143.04 1390.33 2143.04 1366.79V1321.29M1117.83 1236.96L1117.83 1423.03C1117.83 1459.46 1143.17 1489 1174.42 1489M1119.5 429.695L1119.5 191.17C1119.5 144.462 1152.65 106.598 1193.56 106.598M1501.45 -27L1361.39 -27C1333.96 -27 1311.72 -1.54253 1311.72 29.85C1311.72 61.2426 1333.96 86.7001 1361.39 86.7001H1383.07M1920.47 851.333V1021.35C1920.47 1064.2 1950.82 1098.94 1988.26 1098.94C2025.7 1098.94 2056.05 1064.2 2056.05 1021.35V951.178M2292 1141.42V1151.55C2292 1181.46 2270.68 1205.7 2244.4 1205.7C2218.1 1205.7 2196.79 1181.46 2196.79 1151.55V1030.67C2196.79 986.49 2165.29 950.673 2126.44 950.673M1606.31 1119.7H1659.8C1724.96 1119.7 1777.78 1059.62 1777.78 985.517V932.072C1777.78 887.481 1809.57 851.332 1848.78 851.332M1444.87 1314.19C1444.87 1240.66 1393.27 1181.06 1329.62 1181.06C1265.96 1181.06 1214.36 1240.66 1214.36 1314.19C1214.36 1387.71 1265.96 1447.31 1329.62 1447.31M2135.94 246.628C2202.35 266.854 2270.37 223.1 2287.87 148.907C2305.36 74.713 2265.69 -1.83796 2199.28 -22.0633C2132.86 -42.2886 2064.84 1.4646 2047.35 75.6583M2126.4 1032.47C2126.4 1112.96 2063.63 1178.22 1986.19 1178.22C1959.31 1178.22 1934.19 1170.35 1912.85 1156.71M1845.13 932.818V1032.11C1845.13 1063.89 1854.79 1093.29 1871.18 1117.24M1461.51 1177.75C1461.51 1207.84 1482.93 1232.23 1509.36 1232.23C1535.79 1232.23 1557.21 1207.84 1557.21 1177.75C1557.21 1147.66 1535.79 1123.27 1509.36 1123.27H1461.51M1181.49 1161.16C1216.65 1161.16 1245.15 1128.92 1245.15 1089.15C1245.15 1049.38 1216.65 1017.14 1181.49 1017.14C1146.33 1017.14 1117.83 1049.38 1117.83 1089.15L1117.83 1161.16M1838.13 1421.25C1838.13 1456.05 1813.62 1484.26 1783.38 1484.26C1753.14 1484.26 1728.63 1456.05 1728.63 1421.25C1728.63 1386.45 1753.14 1358.24 1783.38 1358.24H1950.82M1840.97 103.766C1869.01 103.766 1891.73 78.3056 1891.73 46.9051C1891.73 15.5046 1869.01 -9.94474 1840.97 -9.94474C1812.94 -9.94474 1790.21 15.5046 1790.21 46.9051V237.353M1233.33 573.715C1233.33 607.205 1256.84 634.355 1285.84 634.355C1314.84 634.355 1338.35 607.205 1338.35 573.715C1338.35 540.225 1314.84 513.075 1285.84 513.075H1117M2243.74 622.115C2217.08 622.115 2195.47 597.705 2195.47 567.595C2195.47 537.484 2217.08 513.075 2243.74 513.075C2270.39 513.075 2292 537.484 2292 567.595V654.253M1585.15 456.699C1585.15 426.609 1606.47 402.217 1632.76 402.217C1659.05 402.217 1680.37 426.609 1680.37 456.699C1680.37 486.788 1659.05 511.18 1632.76 511.18H1454.85M1590.25 1429.78C1590.25 1459.87 1611.36 1484.26 1637.39 1484.26C1663.42 1484.26 1684.53 1459.87 1684.53 1429.78C1684.53 1399.69 1663.42 1375.3 1637.39 1375.3H1444.87M1444.87 836.453C1397.53 836.453 1359.16 879.448 1359.16 932.484C1359.16 985.52 1397.53 1028.51 1444.87 1028.51C1492.21 1028.51 1530.58 985.52 1530.58 932.484V680.783M1721.98 69.0357C1721.98 15.9894 1683.6 -26.9998 1636.26 -26.9998C1588.93 -26.9998 1550.55 15.9894 1550.55 69.0357V320.733M1778.98 704.47H1704.64C1683.42 704.47 1666.22 684.744 1666.22 660.411C1666.22 636.078 1683.42 616.353 1704.64 616.353H1853.32C1874.53 616.353 1891.73 636.078 1891.73 660.411C1891.73 684.744 1874.53 704.47 1853.32 704.47H1835.36M1381.57 622.985H1388.05C1424.94 622.985 1454.85 657.134 1454.85 699.259C1454.85 741.384 1424.94 775.533 1388.05 775.533H1184.64C1147.74 775.533 1117.83 741.384 1117.83 699.259C1117.83 657.134 1147.74 622.985 1184.64 622.985H1186.63M1909.21 1421.02V1425.58C1909.21 1457.99 1932.31 1484.26 1960.8 1484.26C1989.3 1484.26 2012.4 1457.99 2012.4 1425.58L2012.4 1289.97C2012.4 1257.55 1989.3 1231.28 1960.8 1231.28C1932.31 1231.28 1909.21 1257.55 1909.21 1289.97V1294.53M1666.22 777.427H1858.98C1916.59 777.427 1963.3 723.765 1963.3 657.569C1963.3 591.372 1916.59 537.71 1858.98 537.71H1813.44M1992.42 1018.09V821.201C1992.42 746.266 2046.07 685.52 2112.25 685.52C2178.43 685.52 2232.08 746.266 2232.08 821.201V880.433M1700.34 933.765V980.369C1700.34 1011.67 1677.98 1037.04 1650.41 1037.04C1622.84 1037.04 1600.48 1011.67 1600.48 980.369V887.161C1600.48 855.861 1622.84 830.487 1650.41 830.487H1654.85C1679.97 830.487 1700.34 853.607 1700.34 882.126M1509.78 456.699V403.467C1509.78 367.719 1485.75 338.735 1456.1 338.735C1426.46 338.735 1402.43 367.719 1402.43 403.467V509.931C1402.43 545.681 1426.46 574.663 1456.1 574.663M1285.93 849.438L1285.93 977.048C1285.93 1057.8 1343.67 1123.26 1414.91 1123.26M2121.28 115.599C2121.28 85.5093 2142.55 61.1176 2168.77 61.1176C2195 61.1176 2216.27 85.5093 2216.27 115.599C2216.27 145.688 2195 170.08 2168.77 170.08H1859.28M2152.2 523.497C2103.48 523.497 2063.99 479.11 2063.99 424.356V249.67M1600.48 781.217V688.009C1600.48 625.409 1555.77 574.662 1500.62 574.662M1860.94 237.353H1905.68C1950.83 237.353 1987.43 279.044 1987.43 330.48V403.165M1637.93 61.1176V140.714C1637.93 198.275 1679.28 244.933 1730.3 244.933M2292 1282.44H2216.18C2172.52 1282.44 2135.95 1243.62 2126.4 1191.48M1388.28 1446.84C1396.03 1446.84 1493.59 1446.84 1541.4 1446.84M2291.58 1075.89C2291.58 1055.98 2291.58 839.594 2291.58 716.787M1740.28 457.646C1746.68 457.646 1827.27 457.646 1866.77 457.646M2083.96 603.561C2086.57 603.561 2119.44 603.561 2135.56 603.561M1605.47 320.733H1723.91C1742.55 320.733 1757.65 338.067 1757.65 359.452C1757.65 380.837 1772.75 398.171 1791.39 398.171H1798.39C1817.03 398.171 1832.13 380.837 1832.13 359.452C1832.13 338.067 1847.24 320.733 1865.88 320.733H1873.63C1896.55 320.733 1915.12 342.048 1915.12 368.343V429.147M2025.71 585.085V559.715C2025.71 507.289 1988.43 464.79 1942.44 464.79M1441.47 85.7526H1458.35C1482.16 85.7526 1501.45 107.795 1501.45 134.968C1501.45 162.153 1482.16 184.195 1458.35 184.195H1444.37C1420.75 184.195 1401.6 206.066 1401.6 233.034C1401.6 260.014 1420.75 281.885 1444.37 281.885H1461.58M1477.32 931.87C1477.32 910.938 1462.42 893.97 1444.04 893.97C1425.65 893.97 1410.75 910.938 1410.75 931.87C1410.75 952.802 1425.65 969.77 1444.04 969.77C1462.42 969.77 1477.32 952.802 1477.32 931.87ZM2159.69 827.645C2159.69 797.294 2138.26 772.69 2111.84 772.69C2085.41 772.69 2063.99 797.294 2063.99 827.645C2063.99 857.996 2085.41 882.6 2111.84 882.6C2138.27 882.6 2159.69 857.996 2159.69 827.645ZM1383.29 1314.66C1383.29 1281.69 1359.82 1254.97 1330.86 1254.97C1301.91 1254.97 1278.44 1281.69 1278.44 1314.66C1278.44 1347.63 1301.91 1374.35 1330.86 1374.35C1359.82 1374.35 1383.29 1347.63 1383.29 1314.66ZM1263.04 440.118C1218.69 440.118 1182.74 399.622 1182.74 349.668L1182.74 256.74C1182.74 206.782 1218.69 166.29 1263.04 166.29C1307.39 166.29 1343.35 206.782 1343.35 256.74L1343.35 349.668C1343.35 399.622 1307.39 440.118 1263.04 440.118ZM1841.81 1236.49C1841.81 1267.63 1819.67 1292.87 1792.38 1292.87H1651.58C1624.28 1292.87 1602.15 1267.63 1602.15 1236.49C1602.15 1205.36 1624.28 1180.12 1651.58 1180.12H1792.38C1819.67 1180.12 1841.81 1205.36 1841.81 1236.49ZM2187.12 457.173C2153.59 457.173 2126.4 426.205 2126.4 388.005C2126.4 349.809 2153.59 318.838 2187.12 318.838H2231.28C2264.81 318.838 2292 349.809 2292 388.005C2292 426.205 2264.81 457.173 2231.28 457.173H2187.12Z" stroke="white" stroke-opacity="0.05" stroke-width="6" stroke-linecap="round" stroke-linejoin="round"/>
<path d="M3122.61 -26.9999C3149.25 -26.9999 3170.84 -2.60817 3170.84 27.4813C3170.84 57.5708 3149.25 81.9625 3122.61 81.9625M2420.87 -27C2420.87 10.6802 2393.89 41.22 2360.59 41.22C2327.3 41.22 2300.31 10.6802 2300.31 -27M2349.29 956.505C2376.89 956.505 2399.26 931.052 2399.26 899.655C2399.26 868.258 2376.89 842.805 2349.29 842.805L2292.83 842.805M3466 1358.97C3466 1429.74 3415.94 1487.1 3354.17 1487.1C3292.4 1487.1 3242.34 1429.74 3242.34 1358.97V1241.7M3389.51 1366.79C3389.51 1390.33 3373.32 1409.41 3353.34 1409.41C3333.36 1409.41 3317.17 1390.33 3317.17 1366.79V1321.29M2292.83 1236.97L2292.83 1423.03C2292.83 1459.46 2318.14 1489 2349.37 1489M2294.49 429.695L2294.49 191.17C2294.49 144.462 2327.62 106.598 2368.49 106.598M2676.13 -26.9999L2536.18 -26.9999C2508.77 -26.9999 2486.56 -1.54246 2486.56 29.8501C2486.56 61.2427 2508.77 86.7001 2536.18 86.7001H2557.84M3094.79 851.333V1021.35C3094.79 1064.2 3125.11 1098.94 3162.52 1098.94C3199.93 1098.94 3230.25 1064.2 3230.25 1021.35V951.178M3466 1141.42V1151.55C3466 1181.46 3444.7 1205.7 3418.44 1205.7C3392.17 1205.7 3370.87 1181.46 3370.87 1151.55V1030.67C3370.87 986.49 3339.4 950.673 3300.58 950.673M2780.89 1119.7H2834.34C2899.44 1119.7 2952.22 1059.62 2952.22 985.517V932.072C2952.22 887.481 2983.98 851.332 3023.15 851.332M2619.59 1314.19C2619.59 1240.66 2568.03 1181.06 2504.43 1181.06C2440.84 1181.06 2389.28 1240.66 2389.28 1314.19C2389.28 1387.71 2440.84 1447.31 2504.43 1447.31M3310.07 246.628C3376.43 266.854 3444.39 223.1 3461.87 148.907C3479.35 74.7131 3439.72 -1.83789 3373.36 -22.0632C3306.99 -42.2885 3239.03 1.46467 3221.55 75.6583M3300.54 1032.47C3300.54 1112.96 3237.82 1178.22 3160.45 1178.22C3133.59 1178.22 3108.49 1170.35 3087.17 1156.71M3019.51 932.818V1032.11C3019.51 1063.89 3029.16 1093.29 3045.54 1117.24M2636.22 1177.75C2636.22 1207.84 2657.62 1232.23 2684.03 1232.23C2710.43 1232.23 2731.83 1207.84 2731.83 1177.75C2731.83 1147.66 2710.43 1123.27 2684.03 1123.27H2636.22M2356.44 1161.16C2391.57 1161.16 2420.04 1128.92 2420.04 1089.15C2420.04 1049.39 2391.57 1017.15 2356.44 1017.15C2321.31 1017.15 2292.83 1049.39 2292.83 1089.15L2292.83 1161.16M3012.52 1421.25C3012.52 1456.05 2988.02 1484.26 2957.81 1484.26C2927.6 1484.26 2903.11 1456.05 2903.11 1421.25C2903.11 1386.45 2927.6 1358.25 2957.81 1358.25H3125.11M3015.36 103.766C3043.37 103.766 3066.07 78.3057 3066.07 46.9052C3066.07 15.5047 3043.37 -9.94467 3015.36 -9.94467C2987.35 -9.94467 2964.64 15.5047 2964.64 46.9052V237.353M2408.23 573.715C2408.23 607.206 2431.72 634.355 2460.7 634.355C2489.67 634.355 2513.16 607.206 2513.16 573.715C2513.16 540.225 2489.67 513.075 2460.7 513.075H2292M3417.78 622.115C3391.14 622.115 3369.55 597.705 3369.55 567.595C3369.55 537.484 3391.14 513.075 3417.78 513.075C3444.41 513.075 3466 537.484 3466 567.595V654.253M2759.75 456.699C2759.75 426.609 2781.05 402.218 2807.32 402.218C2833.59 402.218 2854.89 426.609 2854.89 456.699C2854.89 486.788 2833.59 511.18 2807.32 511.18H2629.57M2764.85 1429.78C2764.85 1459.87 2785.94 1484.26 2811.95 1484.26C2837.96 1484.26 2859.05 1459.87 2859.05 1429.78C2859.05 1399.69 2837.96 1375.3 2811.95 1375.3H2619.59M2619.59 836.453C2572.29 836.453 2533.95 879.448 2533.95 932.484C2533.95 985.52 2572.29 1028.51 2619.59 1028.51C2666.89 1028.51 2705.23 985.52 2705.23 932.484V680.783M2896.46 69.0357C2896.46 15.9895 2858.12 -26.9998 2810.82 -26.9998C2763.52 -26.9998 2725.18 15.9895 2725.18 69.0357V320.733M2953.41 704.47H2879.14C2857.94 704.47 2840.75 684.744 2840.75 660.411C2840.75 636.078 2857.94 616.353 2879.14 616.353H3027.69C3048.89 616.353 3066.08 636.078 3066.08 660.411C3066.08 684.744 3048.89 704.47 3027.69 704.47H3009.74M2556.34 622.985H2562.82C2599.68 622.985 2629.57 657.134 2629.57 699.259C2629.57 741.384 2599.68 775.533 2562.82 775.533H2359.58C2322.72 775.533 2292.83 741.384 2292.83 699.259C2292.83 657.134 2322.72 622.985 2359.58 622.985H2361.57M3083.54 1421.02V1425.58C3083.54 1457.99 3106.61 1484.26 3135.08 1484.26C3163.56 1484.26 3186.63 1457.99 3186.63 1425.58L3186.63 1289.97C3186.63 1257.55 3163.56 1231.28 3135.08 1231.28C3106.61 1231.28 3083.54 1257.55 3083.54 1289.97V1294.53M2840.75 777.427H3033.35C3090.91 777.427 3137.58 723.765 3137.58 657.569C3137.58 591.372 3090.91 537.71 3033.35 537.71H2987.84M3166.68 1018.09V821.201C3166.68 746.266 3220.28 685.52 3286.41 685.52C3352.53 685.52 3406.14 746.266 3406.14 821.201V880.433M2874.84 933.765V980.369C2874.84 1011.67 2852.51 1037.04 2824.96 1037.04C2797.4 1037.04 2775.07 1011.67 2775.07 980.369V887.161C2775.07 855.861 2797.4 830.488 2824.96 830.488H2829.39C2854.49 830.488 2874.84 853.607 2874.84 882.126M2684.44 456.699V403.467C2684.44 367.719 2660.43 338.735 2630.81 338.735C2601.2 338.735 2577.19 367.719 2577.19 403.467V509.931C2577.19 545.681 2601.2 574.663 2630.81 574.663M2460.78 849.438L2460.78 977.048C2460.78 1057.8 2518.48 1123.27 2589.66 1123.27M3295.42 115.599C3295.42 85.5093 3316.67 61.1177 3342.88 61.1177C3369.09 61.1177 3390.34 85.5093 3390.34 115.599C3390.34 145.688 3369.09 170.08 3342.88 170.08H3033.65M3326.32 523.498C3277.64 523.498 3238.18 479.11 3238.18 424.356V249.67M2775.07 781.218V688.009C2775.07 625.409 2730.4 574.663 2675.3 574.663M3035.31 237.353H3080.01C3125.12 237.353 3161.69 279.044 3161.69 330.48V403.165M2812.48 61.1177V140.714C2812.48 198.275 2853.8 244.933 2904.77 244.933M3466 1282.44H3390.24C3346.62 1282.44 3310.08 1243.62 3300.54 1191.48M2563.05 1446.84C2570.79 1446.84 2668.27 1446.84 2716.04 1446.84M3465.58 1075.89C3465.58 1055.98 3465.58 839.594 3465.58 716.788M2914.75 457.646C2921.15 457.646 3001.67 457.646 3041.13 457.646M3258.14 603.561C3260.75 603.561 3293.59 603.561 3309.69 603.561M2780.06 320.733H2898.4C2917.02 320.733 2932.1 338.067 2932.1 359.452C2932.1 380.837 2947.2 398.171 2965.82 398.171H2972.81C2991.43 398.171 3006.53 380.837 3006.53 359.452C3006.53 338.067 3021.62 320.733 3040.24 320.733H3047.98C3070.88 320.733 3089.44 342.048 3089.44 368.343V429.147M3199.94 585.085V559.715C3199.94 507.289 3162.69 464.79 3116.74 464.79M2616.2 85.7527H2633.06C2656.85 85.7527 2676.13 107.795 2676.13 134.968C2676.13 162.153 2656.85 184.195 2633.06 184.195H2619.09C2595.49 184.195 2576.35 206.066 2576.35 233.035C2576.35 260.014 2595.49 281.885 2619.09 281.885H2636.28M2652.02 931.87C2652.02 910.938 2637.13 893.97 2618.76 893.97C2600.39 893.97 2585.5 910.938 2585.5 931.87C2585.5 952.802 2600.39 969.77 2618.76 969.77C2637.13 969.77 2652.02 952.802 2652.02 931.87ZM3333.8 827.645C3333.8 797.294 3312.4 772.69 3285.99 772.69C3259.59 772.69 3238.18 797.294 3238.18 827.645C3238.18 857.996 3259.59 882.6 3285.99 882.6C3312.4 882.6 3333.8 857.996 3333.8 827.645ZM2558.06 1314.66C2558.06 1281.69 2534.61 1254.97 2505.68 1254.97C2476.75 1254.97 2453.3 1281.69 2453.3 1314.66C2453.3 1347.63 2476.75 1374.35 2505.68 1374.35C2534.61 1374.35 2558.06 1347.63 2558.06 1314.66ZM2437.92 440.118C2393.61 440.118 2357.68 399.622 2357.68 349.668L2357.68 256.74C2357.68 206.782 2393.61 166.29 2437.92 166.29C2482.23 166.29 2518.15 206.782 2518.15 256.74L2518.15 349.668C2518.15 399.622 2482.23 440.118 2437.92 440.118ZM3016.19 1236.49C3016.19 1267.63 2994.08 1292.87 2966.8 1292.87H2826.12C2798.84 1292.87 2776.73 1267.63 2776.73 1236.49C2776.73 1205.36 2798.84 1180.12 2826.12 1180.12H2966.8C2994.08 1180.12 3016.19 1205.36 3016.19 1236.49ZM3361.21 457.173C3327.71 457.173 3300.54 426.205 3300.54 388.005C3300.54 349.809 3327.71 318.838 3361.21 318.838H3405.33C3438.83 318.838 3466 349.809 3466 388.005C3466 426.205 3438.83 457.173 3405.33 457.173H3361.21Z" stroke="white" stroke-opacity="0.05" stroke-width="6" stroke-linecap="round" stroke-linejoin="round"/>
<path fill-rule="evenodd" clip-rule="evenodd" d="M-609.314 1397.24C-395.942 1397.24 -321.058 1378 -1 1378C340.998 1378 398.488 1445.87 727.974 1445.87C1057.46 1445.87 1094.5 1373.5 1353.48 1373.5C1612.47 1373.5 1750.15 1445.87 2067.11 1445.87C2384.08 1445.87 2416.55 1345.5 2734.28 1345.5C3052.02 1345.5 3073.67 1446.44 3403 1446.44C3732.34 1446.44 3403 1935.13 3403 1935.13H-609.314C-609.314 1935.13 -822.686 1397.24 -609.314 1397.24Z" fill="#FFC400"/>
</g>
<defs>
<linearGradient id="paint0_linear" x1="0" y1="0" x2="0" y2="1490" gradientUnits="userSpaceOnUse">
<stop stop-color="#1D6FF2"/>
<stop offset="1" stop-color="#1AC8FC"/>
</linearGradient>
<clipPath id="clip0">
<rect width="2345" height="1490" fill="white"/>
</clipPath>
</defs>
</svg>
